<svg xmlns="http://www.w3.org/2000/svg" xmlns:xlink="http://www.w3.org/1999/xlink" width="300" zoomAndPan="magnify" viewBox="0 0 224.87999 33.749998" height="45" preserveAspectRatio="xMidYMid meet" version="1.0"><defs><g/><clipPath id="a03e32e0ed"><path d="M 2.332031 1.785156 L 32.109375 1.785156 L 32.109375 31.566406 L 2.332031 31.566406 Z M 2.332031 1.785156 " clip-rule="nonzero"/></clipPath></defs><g fill="#ffffff" fill-opacity="1"><g transform="translate(38.072175, 26.470066)"><g><path d="M 1.65625 -6.484375 C 2.769531 -6.109375 3.984375 -5.8125 5.296875 -5.59375 C 6.617188 -5.382812 7.9375 -5.28125 9.25 -5.28125 C 11.03125 -5.28125 12.351562 -5.359375 13.21875 -5.515625 C 14.09375 -5.679688 14.664062 -5.941406 14.9375 -6.296875 C 15.21875 -6.648438 15.359375 -7.101562 15.359375 -7.65625 C 15.359375 -8.132812 15.253906 -8.507812 15.046875 -8.78125 C 14.847656 -9.0625 14.457031 -9.285156 13.875 -9.453125 C 13.300781 -9.617188 12.445312 -9.75 11.3125 -9.84375 L 8.828125 -10.078125 C 6.960938 -10.253906 5.492188 -10.644531 4.421875 -11.25 C 3.359375 -11.851562 2.609375 -12.660156 2.171875 -13.671875 C 1.734375 -14.691406 1.515625 -15.921875 1.515625 -17.359375 C 1.515625 -19.066406 1.859375 -20.445312 2.546875 -21.5 C 3.234375 -22.5625 4.359375 -23.335938 5.921875 -23.828125 C 7.484375 -24.316406 9.5625 -24.5625 12.15625 -24.5625 C 15.519531 -24.5625 18.296875 -24.125 20.484375 -23.25 L 20.375 -18.109375 L 20.265625 -17.96875 C 17.773438 -18.84375 15.171875 -19.28125 12.453125 -19.28125 C 11.140625 -19.28125 10.128906 -19.207031 9.421875 -19.0625 C 8.722656 -18.925781 8.234375 -18.707031 7.953125 -18.40625 C 7.679688 -18.113281 7.546875 -17.6875 7.546875 -17.125 C 7.546875 -16.570312 7.640625 -16.15625 7.828125 -15.875 C 8.015625 -15.601562 8.394531 -15.398438 8.96875 -15.265625 C 9.550781 -15.128906 10.398438 -15 11.515625 -14.875 L 13.890625 -14.609375 C 15.898438 -14.378906 17.445312 -13.972656 18.53125 -13.390625 C 19.613281 -12.816406 20.359375 -12.046875 20.765625 -11.078125 C 21.179688 -10.109375 21.390625 -8.929688 21.390625 -7.546875 C 21.390625 -5.859375 21.03125 -4.453125 20.3125 -3.328125 C 19.601562 -2.210938 18.441406 -1.378906 16.828125 -0.828125 C 15.222656 -0.273438 13.070312 0 10.375 0 C 8.613281 0 7.03125 -0.09375 5.625 -0.28125 C 4.21875 -0.46875 2.847656 -0.726562 1.515625 -1.0625 L 1.515625 -6.375 Z M 1.65625 -6.484375 "/></g></g></g><g fill="#ffffff" fill-opacity="1"><g transform="translate(60.972999, 26.470066)"><g><path d="M 20.078125 -5.515625 L 20.078125 -0.75 C 18.867188 -0.5 17.6875 -0.3125 16.53125 -0.1875 C 15.375 -0.0625 14.003906 0 12.421875 0 C 10.378906 0 8.660156 -0.175781 7.265625 -0.53125 C 5.867188 -0.882812 4.75 -1.503906 3.90625 -2.390625 C 3.0625 -3.285156 2.453125 -4.550781 2.078125 -6.1875 C 1.703125 -7.820312 1.515625 -9.921875 1.515625 -12.484375 C 1.515625 -14.953125 1.703125 -16.976562 2.078125 -18.5625 C 2.453125 -20.144531 3.0625 -21.367188 3.90625 -22.234375 C 4.75 -23.109375 5.867188 -23.710938 7.265625 -24.046875 C 8.660156 -24.390625 10.378906 -24.5625 12.421875 -24.5625 C 14.003906 -24.5625 15.375 -24.503906 16.53125 -24.390625 C 17.6875 -24.273438 18.867188 -24.082031 20.078125 -23.8125 L 20.078125 -18.90625 L 19.96875 -18.828125 C 18.90625 -19.078125 17.882812 -19.257812 16.90625 -19.375 C 15.925781 -19.488281 14.71875 -19.546875 13.28125 -19.546875 C 12.125 -19.546875 11.175781 -19.460938 10.4375 -19.296875 C 9.695312 -19.140625 9.109375 -18.820312 8.671875 -18.34375 C 8.242188 -17.863281 7.945312 -17.15625 7.78125 -16.21875 C 7.625 -15.289062 7.546875 -14.046875 7.546875 -12.484375 C 7.546875 -10.847656 7.625 -9.535156 7.78125 -8.546875 C 7.945312 -7.554688 8.242188 -6.804688 8.671875 -6.296875 C 9.109375 -5.796875 9.695312 -5.457031 10.4375 -5.28125 C 11.175781 -5.101562 12.125 -5.015625 13.28125 -5.015625 C 14.6875 -5.015625 15.882812 -5.054688 16.875 -5.140625 C 17.875 -5.234375 18.878906 -5.40625 19.890625 -5.65625 Z M 20.078125 -5.515625 "/></g></g></g><g fill="#ffffff" fill-opacity="1"><g transform="translate(81.987423, 26.470066)"><g><path d="M 2.265625 -0.34375 L 2.265625 -24.21875 L 20 -24.21875 L 20 -19.3125 L 8.296875 -19.3125 L 8.296875 -14.796875 L 18.453125 -14.796875 L 18.453125 -9.890625 L 8.296875 -9.890625 L 8.296875 -5.25 L 20 -5.25 L 20 -0.34375 Z M 2.265625 -0.34375 "/></g></g></g><g fill="#ffffff" fill-opacity="1"><g transform="translate(102.737755, 26.470066)"><g><path d="M 17.734375 -24.21875 L 23.765625 -24.21875 L 23.765625 -0.34375 L 17.765625 -0.34375 L 10.984375 -10.453125 C 10.453125 -11.253906 10.007812 -11.929688 9.65625 -12.484375 C 9.300781 -13.035156 8.972656 -13.585938 8.671875 -14.140625 C 8.367188 -14.703125 8.03125 -15.359375 7.65625 -16.109375 L 7.546875 -15.96875 C 7.898438 -14.757812 8.113281 -13.628906 8.1875 -12.578125 C 8.257812 -11.535156 8.296875 -10.523438 8.296875 -9.546875 L 8.296875 -0.34375 L 2.265625 -0.34375 L 2.265625 -24.21875 L 8.265625 -24.21875 L 15.0625 -14.109375 C 15.582031 -13.328125 16.019531 -12.65625 16.375 -12.09375 C 16.726562 -11.53125 17.054688 -10.96875 17.359375 -10.40625 C 17.660156 -9.851562 18 -9.203125 18.375 -8.453125 L 18.484375 -8.609375 C 18.234375 -9.660156 18.046875 -10.679688 17.921875 -11.671875 C 17.796875 -12.671875 17.734375 -13.660156 17.734375 -14.640625 Z M 17.734375 -24.21875 "/></g></g></g><g fill="#ffffff" fill-opacity="1"><g transform="translate(128.769998, 26.470066)"><g><path d="M 24.15625 -0.453125 L 24.15625 -0.34375 L 17.734375 -0.34375 C 17.554688 -0.945312 17.347656 -1.632812 17.109375 -2.40625 C 16.867188 -3.1875 16.613281 -4.019531 16.34375 -4.90625 L 8.1875 -4.90625 C 7.6875 -3.144531 7.222656 -1.625 6.796875 -0.34375 L 0.375 -0.34375 L 0.375 -0.421875 L 8.109375 -24.21875 L 16.421875 -24.21875 Z M 12.1875 -19.921875 C 11.9375 -18.640625 11.570312 -17.078125 11.09375 -15.234375 C 10.613281 -13.398438 10.109375 -11.53125 9.578125 -9.625 L 14.984375 -9.625 C 14.429688 -11.53125 13.914062 -13.398438 13.4375 -15.234375 C 12.957031 -17.078125 12.59375 -18.640625 12.34375 -19.921875 Z M 12.1875 -19.921875 "/></g></g></g><g fill="#ffffff" fill-opacity="1"><g transform="translate(153.293117, 26.470066)"><g><path d="M 8.296875 -0.34375 L 2.265625 -0.34375 L 2.265625 -24.21875 L 13.65625 -24.21875 C 16.65625 -24.21875 18.835938 -23.546875 20.203125 -22.203125 C 21.578125 -20.859375 22.265625 -18.878906 22.265625 -16.265625 C 22.265625 -14.296875 21.769531 -12.613281 20.78125 -11.21875 C 19.800781 -9.820312 18.507812 -8.953125 16.90625 -8.609375 L 16.875 -8.484375 C 17.5 -8.085938 18.1875 -7.421875 18.9375 -6.484375 C 19.695312 -5.554688 20.445312 -4.546875 21.1875 -3.453125 C 21.925781 -2.359375 22.585938 -1.332031 23.171875 -0.375 L 23.171875 -0.34375 L 16.15625 -0.34375 L 12.078125 -6.375 C 11.722656 -6.90625 11.4375 -7.28125 11.21875 -7.5 C 11.007812 -7.726562 10.757812 -7.867188 10.46875 -7.921875 C 10.175781 -7.972656 9.71875 -8 9.09375 -8 L 8.296875 -8 Z M 12.671875 -19.3125 L 8.296875 -19.3125 L 8.296875 -12.90625 L 12.671875 -12.90625 C 13.929688 -12.90625 14.804688 -13.15625 15.296875 -13.65625 C 15.785156 -14.164062 16.03125 -14.984375 16.03125 -16.109375 C 16.03125 -17.242188 15.785156 -18.0625 15.296875 -18.5625 C 14.804688 -19.0625 13.929688 -19.3125 12.671875 -19.3125 Z M 12.671875 -19.3125 "/></g></g></g><g fill="#ffffff" fill-opacity="1"><g transform="translate(177.627598, 26.470066)"><g><path d="M 8.296875 -0.34375 L 2.265625 -0.34375 L 2.265625 -24.21875 L 8.296875 -24.21875 Z M 8.296875 -0.34375 "/></g></g></g><g fill="#ffffff" fill-opacity="1"><g transform="translate(188.191408, 26.470066)"><g><path d="M 1.515625 -12.296875 C 1.515625 -15.347656 1.859375 -17.765625 2.546875 -19.546875 C 3.234375 -21.328125 4.425781 -22.609375 6.125 -23.390625 C 7.820312 -24.171875 10.195312 -24.5625 13.25 -24.5625 C 15.53125 -24.5625 17.425781 -24.347656 18.9375 -23.921875 C 20.445312 -23.492188 21.640625 -22.800781 22.515625 -21.84375 C 23.398438 -20.894531 24.023438 -19.632812 24.390625 -18.0625 C 24.753906 -16.488281 24.9375 -14.566406 24.9375 -12.296875 C 24.9375 -10.015625 24.753906 -8.085938 24.390625 -6.515625 C 24.023438 -4.941406 23.398438 -3.675781 22.515625 -2.71875 C 21.640625 -1.757812 20.445312 -1.066406 18.9375 -0.640625 C 17.425781 -0.210938 15.53125 0 13.25 0 C 10.957031 0 9.054688 -0.210938 7.546875 -0.640625 C 6.035156 -1.066406 4.835938 -1.757812 3.953125 -2.71875 C 3.078125 -3.675781 2.453125 -4.941406 2.078125 -6.515625 C 1.703125 -8.085938 1.515625 -10.015625 1.515625 -12.296875 Z M 13.25 -5.28125 C 14.851562 -5.28125 16.054688 -5.476562 16.859375 -5.875 C 17.671875 -6.28125 18.210938 -6.992188 18.484375 -8.015625 C 18.765625 -9.035156 18.90625 -10.460938 18.90625 -12.296875 C 18.90625 -14.109375 18.765625 -15.515625 18.484375 -16.515625 C 18.210938 -17.523438 17.671875 -18.238281 16.859375 -18.65625 C 16.054688 -19.070312 14.851562 -19.28125 13.25 -19.28125 C 11.664062 -19.28125 10.460938 -19.070312 9.640625 -18.65625 C 8.828125 -18.238281 8.273438 -17.523438 7.984375 -16.515625 C 7.691406 -15.515625 7.546875 -14.109375 7.546875 -12.296875 C 7.546875 -10.460938 7.691406 -9.035156 7.984375 -8.015625 C 8.273438 -6.992188 8.828125 -6.28125 9.640625 -5.875 C 10.460938 -5.476562 11.664062 -5.28125 13.25 -5.28125 Z M 13.25 -5.28125 "/></g></g></g><g clip-path="url(#a03e32e0ed)"><path fill="#508181" d="M 29.132812 1.785156 L 5.308594 1.785156 C 3.664062 1.785156 2.332031 3.121094 2.332031 4.765625 L 2.332031 31.566406 L 8.285156 25.609375 L 29.132812 25.609375 C 30.777344 25.609375 32.109375 24.277344 32.109375 22.632812 L 32.109375 4.765625 C 32.109375 3.121094 30.777344 1.785156 29.132812 1.785156 Z M 29.132812 1.785156 " fill-opacity="1" fill-rule="nonzero"/></g></svg>