<svg xmlns="http://www.w3.org/2000/svg" xmlns:xlink="http://www.w3.org/1999/xlink" width="280" zoomAndPan="magnify" viewBox="0 0 210 67.499998" height="90" preserveAspectRatio="xMidYMid meet" version="1.0"><defs><g/><clipPath id="18d3f3dbd2"><path d="M 4.238281 14.675781 L 24 14.675781 L 24 52.644531 L 4.238281 52.644531 Z M 4.238281 14.675781 " clip-rule="nonzero"/></clipPath><clipPath id="559ebb726d"><path d="M 17 26 L 31.039062 26 L 31.039062 41 L 17 41 Z M 17 26 " clip-rule="nonzero"/></clipPath></defs><g fill="#ffffff" fill-opacity="1"><g transform="translate(40.358191, 42.76968)"><g><path d="M 10.640625 -19.859375 C 11.742188 -19.859375 12.835938 -19.734375 13.921875 -19.484375 C 15.003906 -19.234375 15.804688 -18.984375 16.328125 -18.734375 L 17.125 -18.359375 L 14.9375 -14 C 13.425781 -14.800781 11.992188 -15.203125 10.640625 -15.203125 C 9.890625 -15.203125 9.359375 -15.117188 9.046875 -14.953125 C 8.734375 -14.796875 8.578125 -14.488281 8.578125 -14.03125 C 8.578125 -13.9375 8.585938 -13.835938 8.609375 -13.734375 C 8.640625 -13.628906 8.691406 -13.53125 8.765625 -13.4375 C 8.835938 -13.351562 8.90625 -13.28125 8.96875 -13.21875 C 9.03125 -13.15625 9.132812 -13.085938 9.28125 -13.015625 C 9.4375 -12.941406 9.554688 -12.882812 9.640625 -12.84375 C 9.734375 -12.8125 9.878906 -12.753906 10.078125 -12.671875 C 10.285156 -12.597656 10.4375 -12.539062 10.53125 -12.5 C 10.632812 -12.46875 10.804688 -12.414062 11.046875 -12.34375 C 11.285156 -12.269531 11.46875 -12.21875 11.59375 -12.1875 C 12.363281 -11.96875 13.035156 -11.71875 13.609375 -11.4375 C 14.191406 -11.164062 14.800781 -10.789062 15.4375 -10.3125 C 16.082031 -9.832031 16.578125 -9.226562 16.921875 -8.5 C 17.273438 -7.769531 17.453125 -6.941406 17.453125 -6.015625 C 17.453125 -1.628906 14.40625 0.5625 8.3125 0.5625 C 6.9375 0.5625 5.625 0.347656 4.375 -0.078125 C 3.132812 -0.503906 2.238281 -0.929688 1.6875 -1.359375 L 0.859375 -2.03125 L 3.578125 -6.578125 C 3.773438 -6.410156 4.035156 -6.207031 4.359375 -5.96875 C 4.691406 -5.726562 5.28125 -5.398438 6.125 -4.984375 C 6.976562 -4.566406 7.722656 -4.359375 8.359375 -4.359375 C 9.734375 -4.359375 10.421875 -4.820312 10.421875 -5.75 C 10.421875 -6.175781 10.242188 -6.507812 9.890625 -6.75 C 9.546875 -6.988281 8.953125 -7.257812 8.109375 -7.5625 C 7.265625 -7.863281 6.609375 -8.140625 6.140625 -8.390625 C 4.929688 -9.015625 3.972656 -9.722656 3.265625 -10.515625 C 2.566406 -11.304688 2.21875 -12.351562 2.21875 -13.65625 C 2.21875 -15.613281 2.972656 -17.132812 4.484375 -18.21875 C 6.003906 -19.3125 8.054688 -19.859375 10.640625 -19.859375 Z M 10.640625 -19.859375 "/></g></g></g><g fill="#ffffff" fill-opacity="1"><g transform="translate(58.864513, 42.76968)"><g><path d="M 12.53125 -14.40625 C 11.269531 -14.40625 10.1875 -13.941406 9.28125 -13.015625 C 8.382812 -12.085938 7.9375 -10.972656 7.9375 -9.671875 C 7.9375 -8.335938 8.382812 -7.207031 9.28125 -6.28125 C 10.1875 -5.351562 11.269531 -4.890625 12.53125 -4.890625 C 13.132812 -4.890625 13.703125 -4.960938 14.234375 -5.109375 C 14.773438 -5.265625 15.171875 -5.414062 15.421875 -5.5625 L 15.765625 -5.796875 L 18.015625 -1.171875 C 17.847656 -1.046875 17.601562 -0.882812 17.28125 -0.6875 C 16.96875 -0.5 16.253906 -0.242188 15.140625 0.078125 C 14.023438 0.398438 12.828125 0.5625 11.546875 0.5625 C 8.710938 0.5625 6.222656 -0.429688 4.078125 -2.421875 C 1.929688 -4.421875 0.859375 -6.8125 0.859375 -9.59375 C 0.859375 -12.40625 1.929688 -14.816406 4.078125 -16.828125 C 6.222656 -18.847656 8.710938 -19.859375 11.546875 -19.859375 C 12.828125 -19.859375 14.003906 -19.707031 15.078125 -19.40625 C 16.160156 -19.113281 16.925781 -18.816406 17.375 -18.515625 L 18.015625 -18.0625 L 15.765625 -13.5 C 14.929688 -14.101562 13.851562 -14.40625 12.53125 -14.40625 Z M 12.53125 -14.40625 "/></g></g></g><g fill="#ffffff" fill-opacity="1"><g transform="translate(77.333218, 42.76968)"><g><path d="M 21.78125 -8.734375 L 7.78125 -8.734375 C 7.78125 -7.378906 8.21875 -6.375 9.09375 -5.71875 C 9.976562 -5.0625 10.9375 -4.734375 11.96875 -4.734375 C 13.039062 -4.734375 13.890625 -4.878906 14.515625 -5.171875 C 15.148438 -5.460938 15.867188 -6.035156 16.671875 -6.890625 L 21.484375 -4.484375 C 19.472656 -1.117188 16.132812 0.5625 11.46875 0.5625 C 8.5625 0.5625 6.066406 -0.429688 3.984375 -2.421875 C 1.898438 -4.421875 0.859375 -6.820312 0.859375 -9.625 C 0.859375 -12.4375 1.898438 -14.84375 3.984375 -16.84375 C 6.066406 -18.851562 8.5625 -19.859375 11.46875 -19.859375 C 14.53125 -19.859375 17.019531 -18.972656 18.9375 -17.203125 C 20.863281 -15.441406 21.828125 -12.914062 21.828125 -9.625 C 21.828125 -9.175781 21.8125 -8.878906 21.78125 -8.734375 Z M 7.96875 -12.421875 L 15.3125 -12.421875 C 15.164062 -13.421875 14.769531 -14.191406 14.125 -14.734375 C 13.488281 -15.273438 12.664062 -15.546875 11.65625 -15.546875 C 10.5625 -15.546875 9.6875 -15.253906 9.03125 -14.671875 C 8.375 -14.097656 8.019531 -13.347656 7.96875 -12.421875 Z M 7.96875 -12.421875 "/></g></g></g><g fill="#ffffff" fill-opacity="1"><g transform="translate(100.014744, 42.76968)"><g><path d="M 2.25 0 L 2.25 -19.296875 L 8.921875 -19.296875 L 8.921875 -17.265625 L 9 -17.265625 C 10.726562 -18.992188 12.566406 -19.859375 14.515625 -19.859375 C 15.472656 -19.859375 16.421875 -19.734375 17.359375 -19.484375 C 18.304688 -19.234375 19.210938 -18.84375 20.078125 -18.3125 C 20.941406 -17.789062 21.640625 -17.046875 22.171875 -16.078125 C 22.710938 -15.117188 22.984375 -14 22.984375 -12.71875 L 22.984375 0 L 16.328125 0 L 16.328125 -10.90625 C 16.328125 -11.914062 16.003906 -12.796875 15.359375 -13.546875 C 14.722656 -14.296875 13.894531 -14.671875 12.875 -14.671875 C 11.863281 -14.671875 10.953125 -14.28125 10.140625 -13.5 C 9.328125 -12.726562 8.921875 -11.863281 8.921875 -10.90625 L 8.921875 0 Z M 2.25 0 "/></g></g></g><g fill="#ffffff" fill-opacity="1"><g transform="translate(124.877908, 42.76968)"><g><path d="M 3.5625 -2.390625 C 1.757812 -4.359375 0.859375 -6.769531 0.859375 -9.625 C 0.859375 -12.488281 1.757812 -14.910156 3.5625 -16.890625 C 5.375 -18.867188 7.671875 -19.859375 10.453125 -19.859375 C 13.015625 -19.859375 15.125 -19.054688 16.78125 -17.453125 L 16.78125 -19.296875 L 23.4375 -19.296875 L 23.4375 0 L 16.859375 0 L 16.859375 -2.1875 L 16.78125 -2.1875 C 15.125 -0.351562 13.015625 0.5625 10.453125 0.5625 C 7.671875 0.5625 5.375 -0.421875 3.5625 -2.390625 Z M 9.234375 -12.90625 C 8.367188 -12.050781 7.9375 -10.957031 7.9375 -9.625 C 7.9375 -8.300781 8.347656 -7.21875 9.171875 -6.375 C 10.003906 -5.53125 11.097656 -5.109375 12.453125 -5.109375 C 13.753906 -5.109375 14.828125 -5.535156 15.671875 -6.390625 C 16.515625 -7.242188 16.9375 -8.320312 16.9375 -9.625 C 16.9375 -10.957031 16.5 -12.050781 15.625 -12.90625 C 14.757812 -13.757812 13.703125 -14.1875 12.453125 -14.1875 C 11.171875 -14.1875 10.097656 -13.757812 9.234375 -12.90625 Z M 9.234375 -12.90625 "/></g></g></g><g fill="#ffffff" fill-opacity="1"><g transform="translate(150.568591, 42.76968)"><g><path d="M 2.25 0 L 2.25 -19.296875 L 8.921875 -19.296875 L 8.921875 -16.515625 L 9 -16.515625 C 9.039062 -16.617188 9.117188 -16.742188 9.234375 -16.890625 C 9.347656 -17.046875 9.59375 -17.3125 9.96875 -17.6875 C 10.34375 -18.0625 10.742188 -18.398438 11.171875 -18.703125 C 11.597656 -19.003906 12.148438 -19.269531 12.828125 -19.5 C 13.503906 -19.738281 14.195312 -19.859375 14.90625 -19.859375 C 15.625 -19.859375 16.332031 -19.757812 17.03125 -19.5625 C 17.738281 -19.363281 18.257812 -19.164062 18.59375 -18.96875 L 19.109375 -18.65625 L 16.328125 -13.015625 C 15.503906 -13.722656 14.351562 -14.078125 12.875 -14.078125 C 12.0625 -14.078125 11.367188 -13.898438 10.796875 -13.546875 C 10.222656 -13.191406 9.816406 -12.765625 9.578125 -12.265625 C 9.335938 -11.765625 9.164062 -11.335938 9.0625 -10.984375 C 8.96875 -10.628906 8.921875 -10.351562 8.921875 -10.15625 L 8.921875 0 Z M 2.25 0 "/></g></g></g><g fill="#ffffff" fill-opacity="1"><g transform="translate(169.300601, 42.76968)"><g><path d="M 2.890625 -30.0625 C 3.671875 -30.84375 4.597656 -31.234375 5.671875 -31.234375 C 6.753906 -31.234375 7.679688 -30.84375 8.453125 -30.0625 C 9.234375 -29.28125 9.625 -28.347656 9.625 -27.265625 C 9.625 -26.191406 9.234375 -25.265625 8.453125 -24.484375 C 7.679688 -23.710938 6.753906 -23.328125 5.671875 -23.328125 C 4.597656 -23.328125 3.671875 -23.710938 2.890625 -24.484375 C 2.117188 -25.265625 1.734375 -26.191406 1.734375 -27.265625 C 1.734375 -28.347656 2.117188 -29.28125 2.890625 -30.0625 Z M 2.25 -19.296875 L 2.25 0 L 8.921875 0 L 8.921875 -19.296875 Z M 2.25 -19.296875 "/></g></g></g><g fill="#ffffff" fill-opacity="1"><g transform="translate(180.660167, 42.76968)"><g><path d="M 4.078125 -2.296875 C 1.929688 -4.203125 0.859375 -6.644531 0.859375 -9.625 C 0.859375 -12.613281 1.972656 -15.066406 4.203125 -16.984375 C 6.441406 -18.898438 9.203125 -19.859375 12.484375 -19.859375 C 15.722656 -19.859375 18.453125 -18.894531 20.671875 -16.96875 C 22.890625 -15.039062 24 -12.59375 24 -9.625 C 24 -6.664062 22.914062 -4.226562 20.75 -2.3125 C 18.582031 -0.394531 15.828125 0.5625 12.484375 0.5625 C 9.023438 0.5625 6.222656 -0.390625 4.078125 -2.296875 Z M 9.234375 -12.90625 C 8.367188 -12.050781 7.9375 -10.957031 7.9375 -9.625 C 7.9375 -8.300781 8.347656 -7.21875 9.171875 -6.375 C 10.003906 -5.53125 11.097656 -5.109375 12.453125 -5.109375 C 13.753906 -5.109375 14.828125 -5.535156 15.671875 -6.390625 C 16.515625 -7.242188 16.9375 -8.320312 16.9375 -9.625 C 16.9375 -10.957031 16.5 -12.050781 15.625 -12.90625 C 14.757812 -13.757812 13.703125 -14.1875 12.453125 -14.1875 C 11.171875 -14.1875 10.097656 -13.757812 9.234375 -12.90625 Z M 9.234375 -12.90625 "/></g></g></g><g clip-path="url(#18d3f3dbd2)"><path fill="#ffffff" d="M 4.242188 33.660156 C 4.242188 44.128906 12.828125 52.644531 23.382812 52.644531 L 23.382812 44.136719 C 17.558594 44.136719 12.820312 39.4375 12.820312 33.660156 C 12.820312 27.882812 17.558594 23.183594 23.382812 23.183594 L 23.382812 14.675781 C 12.828125 14.675781 4.242188 23.191406 4.242188 33.660156 " fill-opacity="1" fill-rule="nonzero"/></g><g clip-path="url(#559ebb726d)"><path fill="#ffffff" d="M 24.035156 26.535156 C 20.167969 26.535156 17.035156 29.644531 17.035156 33.476562 C 17.035156 37.3125 20.167969 40.421875 24.035156 40.421875 C 27.902344 40.421875 31.035156 37.3125 31.035156 33.476562 C 31.035156 29.644531 27.902344 26.535156 24.035156 26.535156 " fill-opacity="1" fill-rule="nonzero"/></g></svg>